Patient4_TMGait_0pt3_01_right_17_GRF.mot
version=1
nRows=71
nColumns=19
inDegrees=no
endheader
time	F1x	F1y	F1z	M1x	M1y	M1z	F2x	F2y	F2z	M2x	M2y	M2z	EC1x	EC1y	EC1z	EC2x	EC2y	EC2z
30.66	-11.6705	852.1135	64.786	-349.5443	-71.3366	883.4683	10.5397	5.7285	-0.1033	1.2806	-2.1592	6.2527	-0.0592	0.0182	-0.0073	-0.0462	0.0165	0.9585
30.6792	-11.6998	862.0667	64.7823	-353.4596	-70.6721	892.1866	7.0752	4.6208	-0.099618	1.1288	-1.3853	5.0485	-0.0592	0.0182	-0.0073	-0.0462	0.0165	0.9585
30.6984	-11.5748	871.5286	64.6846	-357.1519	-69.7799	900.0245	4.1125	3.6893	-0.098488	1.0045	-0.72266	4.0416	-0.0592	0.0182	-0.0073	-0.0462	0.0165	0.9585
30.7176	-11.1629	878.7523	64.4283	-359.9011	-68.5663	905.2058	1.8317	2.9991	-0.098633	0.91702	-0.21304	3.2968	-0.0592	0.0182	-0.0073	-0.0462	0.0165	0.9585
30.7369	-10.3138	882.0009	63.9769	-360.9862	-66.96	905.9704	0.23271	2.5426	-0.098254	0.86258	0.1423	2.8085	-0.0592	0.0182	-0.0073	-0.0462	0.0165	0.9585
30.7561	-8.8993	879.8449	63.3272	-359.8092	-64.9335	900.8874	-0.77801	2.2684	-0.094305	0.82898	0.36113	2.5223	-0.0592	0.0182	-0.0073	-0.0462	0.0165	0.9585
30.7753	-6.8378	871.4362	62.5044	-356.0111	-62.5012	889.1207	-1.3315	2.0959	-0.084109	0.79711	0.46916	2.3479	-0.0592	0.0182	-0.0073	-0.0462	0.0165	0.9585
30.7945	-4.1178	856.7043	61.5438	-349.5616	-59.7092	870.6377	-1.5602	1.9283	-0.069129	0.74393	0.49926	2.1754	-0.0592	0.0182	-0.0073	-0.0462	0.0165	0.9585
30.8137	-0.79778	836.4419	60.4693	-340.8014	-56.6139	846.2974	-1.578	1.6568	-0.054238	0.64286	0.48254	1.8825	-0.0592	0.0182	-0.0073	-0.0462	0.0165	0.9585
30.8329	3.0279	812.2673	59.2702	-330.4268	-53.2488	817.7951	-1.4705	1.1692	-0.040657	0.46358	0.43795	1.3456	-0.0592	0.0182	-0.0073	-0.0462	0.0165	0.9585
30.8521	7.2511	786.4086	57.919	-319.3958	-49.6327	787.4278	-1.2942	0.36305	-0.024038	0.17631	0.37196	0.45389	-0.0592	0.0182	-0.0073	-0.0462	0.0165	0.9585
30.8714	11.754	761.371	56.4058	-308.7804	-45.8011	757.7439	-1.0811	-0.83724	0.003277	-0.24112	0.28256	-0.87669	-0.0592	0.0182	-0.0073	-0.0462	0.0165	0.9585
30.8906	16.4332	739.5638	54.7675	-299.6035	-41.8236	731.1621	-0.84841	-2.4447	0.049909	-0.79196	0.16141	-2.6668	-0.0592	0.0182	-0.0073	-0.0462	0.0165	0.9585
30.9098	21.2072	722.9207	53.0947	-292.676	-37.8077	709.6034	-0.60331	-4.3701	0.12465	-1.4459	-0.0014106	-4.8187	-0.0592	0.0182	-0.0073	-0.0462	0.0165	0.9585
30.929	26.0068	712.5715	51.5164	-288.4613	-33.891	694.1897	-0.34613	-6.3642	0.23702	-2.1191	-0.21618	-7.0541	-0.0592	0.0182	-0.0073	-0.0462	0.0165	0.9585
30.9482	30.7689	708.6584	50.1793	-286.9974	-30.2268	685.0804	-0.081232	-7.9473	0.39341	-2.6494	-0.48694	-8.8383	-0.0592	0.0182	-0.0073	-0.0462	0.0165	0.9585
30.9674	35.4172	710.2678	49.2159	-287.87	-26.9697	681.4357	0.17156	-8.3381	0.59345	-2.7739	-0.80081	-9.3027	-0.0592	0.0182	-0.0073	-0.0462	0.0165	0.9585
30.9866	39.8297	715.4749	48.7114	-290.2356	-24.2596	681.4886	0.36818	-6.4024	0.82028	-2.1103	-1.1149	-7.1787	-0.0592	0.0182	-0.0073	-0.0462	0.0165	0.9585
31.0059	43.8398	721.585	48.6913	-292.9305	-22.2044	682.777	0.43295	-0.64456	1.0301	-0.15292	-1.3436	-0.80109	-0.0592	0.0182	-0.0073	-0.0462	0.0165	0.9585
31.0251	47.2369	725.5505	49.1071	-294.6505	-20.8631	682.5369	0.25196	10.712	1.1451	3.6995	-1.3512	11.8091	-0.0592	0.0182	-0.0073	-0.0462	0.0165	0.9585
31.0443	49.7716	724.432	49.8323	-294.148	-20.2379	678.1345	-0.33062	29.5028	1.0488	10.0664	-0.94723	32.6993	-0.0592	0.0182	-0.0073	-0.0462	0.0165	0.9585
31.0635	51.1974	715.7763	50.6697	-290.3914	-20.2621	667.4002	-1.5037	57.1915	0.58551	19.4388	0.11637	63.5072	-0.0592	0.0182	-0.0073	-0.0462	0.0165	0.9585
31.0827	51.3156	697.8929	51.3661	-282.6859	-20.7959	648.8616	-3.4894	94.1948	-0.43757	31.9502	2.1357	104.7116	-0.0592	0.0182	-0.0073	-0.0462	0.0165	0.9585
31.1019	50.0085	670.0637	51.6346	-270.7629	-21.6368	621.9153	-6.6602	139.1729	-2.2308	47.1289	5.457	154.845	-0.0592	0.0182	-0.0073	-0.0462	0.0165	0.9585
31.1211	47.3263	632.7543	51.2065	-254.8691	-22.5307	586.9786	-11.2471	188.914	-5.0876	63.8453	10.4476	210.3657	-0.0592	0.0182	-0.0073	-0.0462	0.0165	0.9585
31.1404	43.5857	587.7743	49.9117	-235.827	-23.1981	545.6006	-16.9831	239.9458	-9.0021	80.8931	16.9723	267.3934	-0.0592	0.0182	-0.0073	-0.0462	0.0165	0.9585
31.1596	39.3383	537.9622	47.7273	-214.8873	-23.3801	500.1686	-23.2948	290.4377	-13.5989	97.6551	24.4138	323.8144	-0.0592	0.0182	-0.0073	-0.0462	0.0165	0.9585
31.1788	35.1748	486.2723	44.7284	-193.3405	-22.8732	453.1326	-29.5862	339.648	-18.3708	113.9041	32.0192	378.7086	-0.0592	0.0182	-0.0073	-0.0462	0.0165	0.9585
31.198	31.4728	434.9818	41.0281	-172.1772	-21.5858	406.3693	-35.3591	387.0266	-22.8962	129.4731	39.1615	431.3794	-0.0592	0.0182	-0.0073	-0.0462	0.0165	0.9585
31.2172	28.2828	385.4019	36.7862	-151.9559	-19.601	360.968	-40.2178	431.9886	-26.9462	144.1689	45.4506	481.1157	-0.0592	0.0182	-0.0073	-0.0462	0.0165	0.9585
31.2364	25.4235	338.0691	32.2156	-132.8804	-17.1517	317.3999	-43.9029	473.9359	-30.4651	157.7825	50.7252	527.2158	-0.0592	0.0182	-0.0073	-0.0462	0.0165	0.9585
31.2556	22.6252	293.1299	27.562	-114.9675	-14.5449	275.8366	-46.3118	512.3727	-33.4871	170.1419	54.9778	569.1047	-0.0592	0.0182	-0.0073	-0.0462	0.0165	0.9585
31.2749	19.6464	250.6623	23.0726	-98.1905	-12.0847	236.4066	-47.4819	547.1518	-36.0651	181.2054	58.2746	606.5961	-0.0592	0.0182	-0.0073	-0.0462	0.0165	0.9585
31.2941	16.3669	210.8523	18.9574	-82.5631	-9.9986	199.3297	-47.5306	578.5004	-38.2558	191.0677	60.7176	639.9122	-0.0592	0.0182	-0.0073	-0.0462	0.0165	0.9585
31.3133	12.8021	174.0243	15.3464	-68.1574	-8.3978	164.9386	-46.6061	606.8018	-40.0965	199.8846	62.3993	669.4459	-0.0592	0.0182	-0.0073	-0.0462	0.0165	0.9585
31.3325	9.07	140.5778	12.2783	-55.0898	-7.2825	133.6215	-44.8705	632.3716	-41.5885	207.7943	63.3802	695.525	-0.0592	0.0182	-0.0073	-0.0462	0.0165	0.9585
31.3517	5.3657	110.8972	9.7312	-43.4883	-6.573	105.7443	-42.4872	655.3227	-42.7172	214.8674	63.7077	718.2774	-0.0592	0.0182	-0.0073	-0.0462	0.0165	0.9585
31.3709	1.9265	85.2274	7.6602	-33.441	-6.1484	81.5379	-39.6003	675.5414	-43.4698	221.0964	63.4248	737.608	-0.0592	0.0182	-0.0073	-0.0462	0.0165	0.9585
31.3901	-1.0184	63.566	6.001	-24.9491	-5.8689	61.0134	-36.3217	692.7738	-43.8244	226.4265	62.5529	753.2835	-0.0592	0.0182	-0.0073	-0.0462	0.0165	0.9585
31.4094	-3.2765	45.6765	4.6681	-17.9268	-5.5889	43.9775	-32.722	706.7892	-43.7552	230.8116	61.0969	765.0916	-0.0592	0.0182	-0.0073	-0.0462	0.0165	0.9585
31.4286	-4.7084	31.2035	3.5713	-12.2424	-5.1787	30.1295	-28.8499	717.5268	-43.2568	234.2622	59.0787	772.9985	-0.0592	0.0182	-0.0073	-0.0462	0.0165	0.9585
31.4478	-5.2554	19.786	2.6364	-7.7587	-4.5537	19.1593	-24.7679	725.1495	-42.3637	236.8555	56.5679	777.2115	-0.0592	0.0182	-0.0073	-0.0462	0.0165	0.9585
31.467	-4.9741	11.1048	1.8202	-4.3509	-3.7019	10.7852	-20.5807	730.0501	-41.1527	238.7306	53.6907	778.1863	-0.0592	0.0182	-0.0073	-0.0462	0.0165	0.9585
31.4862	-4.0982	4.8801	1.126	-1.9096	-2.7232	4.7531	-16.4432	732.9265	-39.7347	240.1099	50.6218	776.7085	-0.0592	0.0182	-0.0073	-0.0462	0.0165	0.9585
31.5054	-2.9852	0.80227	0.58585	-0.31377	-1.791	0.78636	-12.5797	734.896	-38.2306	241.3375	47.5643	774.0266	-0.0592	0.0182	-0.0073	-0.0462	0.0165	0.9585
31.5246	-1.8967	-1.5555	0.20599	0.6048	-1.0145	-1.5121	-9.2783	737.4973	-36.7614	242.8799	44.7357	771.8518	-0.0592	0.0182	-0.0073	-0.0462	0.0165	0.9585
31.5439	-0.96978	-2.6566	-0.035413	1.0309	-0.42784	-2.5869	-6.8276	742.4581	-35.4477	245.2517	42.3506	772.1013	-0.0592	0.0182	-0.0073	-0.0462	0.0165	0.9585
31.5631	-0.2569	-2.923	-0.1718	1.1327	-0.021098	-2.8453	-5.4331	751.301	-34.3962	248.89	40.578	776.4672	-0.0592	0.0182	-0.0073	-0.0462	0.0165	0.9585
31.5823	0.24232	-2.6946	-0.23687	1.0446	0.23847	-2.6182	-5.1656	764.9211	-33.6836	254.0206	39.5084	785.9709	-0.0592	0.0182	-0.0073	-0.0462	0.0165	0.9585
31.6015	0.55639	-2.2244	-0.2562	0.86352	0.38632	-2.1526	-5.9578	783.2518	-33.3599	260.5516	39.1567	800.619	-0.0592	0.0182	-0.0073	-0.0462	0.0165	0.9585
31.6207	0.72412	-1.68	-0.24716	0.65342	0.45381	-1.6107	-7.6347	805.1242	-33.4453	268.0322	39.4704	819.2663	-0.0592	0.0182	-0.0073	-0.0462	0.0165	0.9585
31.6399	0.78443	-1.1609	-0.22068	0.45214	0.46506	-1.0879	-9.936	828.4054	-33.9218	275.707	40.3283	839.7497	-0.0592	0.0182	-0.0073	-0.0462	0.0165	0.9585
31.6591	0.7729	-0.71905	-0.185	0.28045	0.43902	-0.63923	-12.5274	850.3985	-34.7274	282.654	41.5421	859.2963	-0.0592	0.0182	-0.0073	-0.0462	0.0165	0.9585
31.6784	0.71639	-0.3799	-0.14593	0.14861	0.38944	-0.2932	-15.0464	868.3822	-35.7585	287.965	42.8804	875.0787	-0.0592	0.0182	-0.0073	-0.0462	0.0165	0.9585
31.6976	0.63648	-0.15808	-0.10588	0.061576	0.32571	-0.063444	-17.1559	880.0883	-36.8913	290.9051	44.1085	884.7078	-0.0592	0.0182	-0.0073	-0.0462	0.0165	0.9585
31.7168	0.54766	-0.068018	-0.068217	0.024514	0.25639	0.039226	-18.57	884.0246	-38.0042	291.0164	45.02	886.5626	-0.0592	0.0182	-0.0073	-0.0462	0.0165	0.9585
31.736	0.45753	-0.12841	-0.038841	0.045744	0.19044	-0.0015344	-19.0971	879.6404	-38.9833	288.1729	45.4591	879.9794	-0.0592	0.0182	-0.0073	-0.0462	0.0165	0.9585
31.7552	0.36993	-0.36442	-0.020795	0.13738	0.13412	-0.21692	-18.6547	867.3969	-39.7207	282.6056	45.3227	865.3387	-0.0592	0.0182	-0.0073	-0.0462	0.0165	0.9585
31.7744	0.28788	-0.80357	-0.016735	0.31377	0.09403	-0.64587	-17.2726	848.7017	-40.101	274.8791	44.5445	844.0069	-0.0592	0.0182	-0.0073	-0.0462	0.0165	0.9585
31.7936	0.21469	-1.4699	-0.029713	0.58731	0.078028	-1.3231	-15.0759	825.6308	-40.0167	265.7821	43.0984	818.0425	-0.0592	0.0182	-0.0073	-0.0462	0.0165	0.9585
31.8129	0.15975	-2.368	-0.064005	0.96222	0.096392	-2.2652	-12.2337	800.5614	-39.4396	256.1847	41.0389	789.8017	-0.0592	0.0182	-0.0073	-0.0462	0.0165	0.9585
31.8321	0.14543	-3.4585	-0.12343	1.4239	0.16117	-3.4415	-8.9065	775.8265	-38.4553	246.9106	38.5149	761.5884	-0.0592	0.0182	-0.0073	-0.0462	0.0165	0.9585
31.8513	0.20665	-4.6331	-0.21154	1.923	0.28903	-4.7331	-5.2224	753.4344	-37.2468	238.642	35.7463	735.3773	-0.0592	0.0182	-0.0073	-0.0462	0.0165	0.9585
31.8705	0.39375	-5.6691	-0.33123	2.3613	0.5035	-5.8965	-1.2803	734.8348	-36.0483	231.851	32.9787	712.5871	-0.0592	0.0182	-0.0073	-0.0462	0.0165	0.9585
31.8897	0.76904	-6.1862	-0.48315	2.5759	0.8316	-6.5195	2.8301	720.7637	-35.0831	226.7637	30.433	693.9373	-0.0592	0.0182	-0.0073	-0.0462	0.0165	0.9585
31.9089	1.3984	-5.6095	-0.65826	2.3231	1.2928	-5.977	7.0221	711.2578	-34.5137	223.3775	28.2736	679.4688	-0.0592	0.0182	-0.0073	-0.0462	0.0165	0.9585
31.9281	2.3354	-3.1547	-0.83071	1.2707	1.8814	-3.4155	11.2258	705.7948	-34.4118	221.5121	26.5786	668.6809	-0.0592	0.0182	-0.0073	-0.0462	0.0165	0.9585
31.9474	3.5956	2.1459	-0.95159	-0.98916	2.5482	2.2233	15.3912	703.4626	-34.754	220.8646	25.3303	660.7072	-0.0592	0.0182	-0.0073	-0.0462	0.0165	0.9585
31.9666	5.1217	11.3464	-0.9414	-4.8994	3.1783	12.0987	19.4647	703.1266	-35.4485	221.0576	24.4472	654.5009	-0.0592	0.0182	-0.0073	-0.0462	0.0165	0.9585
31.9858	6.7403	25.3833	-0.68776	-10.8522	3.5715	27.2432	23.3778	703.5262	-36.3617	221.6601	23.8123	648.9498	-0.0592	0.0182	-0.0073	-0.0462	0.0165	0.9585
32.005	8.1077	44.7302	-0.045713	-19.0407	3.4209	48.1954	27.0093	703.3113	-37.3421	222.1906	23.3143	642.9401	-0.0592	0.0182	-0.0073	-0.0462	0.0165	0.9585
